<?xml version="1.0" encoding="UTF-8" standalone="no"?>
<svg
   width="17"
   height="21"
   viewBox="0 0 17 21"
   version="1.1"
   id="svg1"
   sodipodi:docname="audioIcon.svg"
   inkscape:version="1.4 (86a8ad7, 2024-10-11)"
   xmlns:inkscape="http://www.inkscape.org/namespaces/inkscape"
   xmlns:sodipodi="http://sodipodi.sourceforge.net/DTD/sodipodi-0.dtd"
   xmlns="http://www.w3.org/2000/svg"
   xmlns:svg="http://www.w3.org/2000/svg">
  <defs
     id="defs1" />
  <sodipodi:namedview
     id="namedview1"
     pagecolor="#ffffff"
     bordercolor="#111111"
     borderopacity="1"
     inkscape:showpageshadow="0"
     inkscape:pageopacity="0"
     inkscape:pagecheckerboard="1"
     inkscape:deskcolor="#d1d1d1"
     inkscape:zoom="11.888233"
     inkscape:cx="-5.2572995"
     inkscape:cy="9.3790223"
     inkscape:window-width="1920"
     inkscape:window-height="1009"
     inkscape:window-x="-8"
     inkscape:window-y="-8"
     inkscape:window-maximized="1"
     inkscape:current-layer="svg1" />
  <rect
     width="24"
     height="24"
     fill="none"
     id="rect1"
     x="-3.5"
     y="-1.5" />
  <path
     fill="#f008c8"
     d="m 7.25,17.499999 q 0.95,0 1.6,-0.65 0.65,-0.65 0.65,-1.6 v -3.75 h 2 q 0.425,0 0.713,-0.288 0.288,-0.288 0.287,-0.712 -10e-4,-0.424 -0.288,-0.7119998 -0.287,-0.288 -0.712,-0.288 h -2 q -0.425,0 -0.712,0.288 Q 8.501,10.075999 8.5,10.499999 v 2.875 q -0.275,-0.2 -0.587,-0.288 -0.312,-0.088 -0.663,-0.087 -0.95,0 -1.6,0.65 -0.65,0.65 -0.65,1.6 0,0.95 0.65,1.6 0.65,0.65 1.6,0.65 m -4.75,3 q -0.825,0 -1.412,-0.587 -0.587,-0.587 -0.588,-1.413 V 2.4999992 q 0,-0.825 0.588,-1.412 Q 1.676,0.50099915 2.5,0.49999915 h 7.175 q 0.4,0 0.763,0.15 0.363,0.15 0.637,0.42500005 l 4.85,4.85 q 0.275,0.275 0.425,0.638 0.15,0.363 0.15,0.762 V 18.499999 q 0,0.825 -0.587,1.413 -0.587,0.588 -1.413,0.587 z m 7,-13.9999998 v -4 h -7 V 18.499999 h 12 V 7.4999992 h -4 q -0.425,0 -0.712,-0.288 -0.287,-0.288 -0.288,-0.712 m -7,-4 v 5 z m 0,0 V 18.499999 Z"
     id="path1" />
</svg>
